<mxfile host="app.diagrams.net" agent="Mozilla/5.0 (X11; Linux x86_64; rv:129.0) Gecko/20100101 Firefox/129.0" version="24.7.7">
  <diagram name="Pagina-1" id="Fq757PWEKdhl8r7LoICb">
    <mxGraphModel dx="880" dy="451" grid="1" gridSize="10" guides="1" tooltips="1" connect="1" arrows="1" fold="1" page="1" pageScale="1" pageWidth="827" pageHeight="1169" math="0" shadow="0">
      <root>
        <mxCell id="0" />
        <mxCell id="1" parent="0" />
        <mxCell id="MLf8Ukj_yO1i3O_HCmkT-31" value="" style="rounded=0;whiteSpace=wrap;html=1;" vertex="1" parent="1">
          <mxGeometry x="130" y="400" width="500" height="250" as="geometry" />
        </mxCell>
        <mxCell id="MLf8Ukj_yO1i3O_HCmkT-25" value="" style="rounded=0;whiteSpace=wrap;html=1;" vertex="1" parent="1">
          <mxGeometry x="130" y="100" width="500" height="270" as="geometry" />
        </mxCell>
        <mxCell id="MLf8Ukj_yO1i3O_HCmkT-1" value="PLC_name [PLC_ID]" style="text;html=1;align=center;verticalAlign=middle;whiteSpace=wrap;rounded=0;" vertex="1" parent="1">
          <mxGeometry x="170" y="110" width="250" height="30" as="geometry" />
        </mxCell>
        <mxCell id="MLf8Ukj_yO1i3O_HCmkT-17" value="&lt;div align=&quot;left&quot;&gt;STATUS:&lt;/div&gt;" style="rounded=0;whiteSpace=wrap;html=1;align=left;" vertex="1" parent="1">
          <mxGeometry x="190" y="150" width="190" height="80" as="geometry" />
        </mxCell>
        <mxCell id="MLf8Ukj_yO1i3O_HCmkT-19" value="POWER CONSUPTION: 3.5 W" style="rounded=0;whiteSpace=wrap;html=1;" vertex="1" parent="1">
          <mxGeometry x="380" y="150" width="190" height="80" as="geometry" />
        </mxCell>
        <mxCell id="MLf8Ukj_yO1i3O_HCmkT-20" value="&lt;div align=&quot;left&quot;&gt;SETTING:&lt;br&gt;&lt;/div&gt;" style="rounded=0;whiteSpace=wrap;html=1;align=left;" vertex="1" parent="1">
          <mxGeometry x="190" y="230" width="190" height="80" as="geometry" />
        </mxCell>
        <mxCell id="MLf8Ukj_yO1i3O_HCmkT-21" value="Other values..." style="rounded=0;whiteSpace=wrap;html=1;" vertex="1" parent="1">
          <mxGeometry x="380" y="230" width="190" height="80" as="geometry" />
        </mxCell>
        <mxCell id="MLf8Ukj_yO1i3O_HCmkT-23" value="&lt;div&gt;START&lt;/div&gt;" style="labelPosition=center;verticalLabelPosition=middle;align=center;html=1;shape=mxgraph.basic.shaded_button;dx=10;fillColor=#E6E6E6;strokeColor=none;whiteSpace=wrap;" vertex="1" parent="1">
          <mxGeometry x="260" y="170" width="70" height="40" as="geometry" />
        </mxCell>
        <mxCell id="MLf8Ukj_yO1i3O_HCmkT-24" value="MANUAL" style="labelPosition=center;verticalLabelPosition=middle;align=center;html=1;shape=mxgraph.basic.shaded_button;dx=10;fillColor=#E6E6E6;strokeColor=none;whiteSpace=wrap;" vertex="1" parent="1">
          <mxGeometry x="260" y="250" width="70" height="40" as="geometry" />
        </mxCell>
        <mxCell id="MLf8Ukj_yO1i3O_HCmkT-26" value="PLATFORM_H" style="labelPosition=center;verticalLabelPosition=middle;align=center;html=1;shape=mxgraph.basic.shaded_button;dx=10;fillColor=#E6E6E6;strokeColor=none;whiteSpace=wrap;" vertex="1" parent="1">
          <mxGeometry x="140" y="320" width="100" height="40" as="geometry" />
        </mxCell>
        <mxCell id="MLf8Ukj_yO1i3O_HCmkT-27" value="PLATFORM_L" style="labelPosition=center;verticalLabelPosition=middle;align=center;html=1;shape=mxgraph.basic.shaded_button;dx=10;fillColor=#E6E6E6;strokeColor=none;whiteSpace=wrap;" vertex="1" parent="1">
          <mxGeometry x="520" y="320" width="100" height="40" as="geometry" />
        </mxCell>
        <mxCell id="MLf8Ukj_yO1i3O_HCmkT-28" value="PLATFORM_M" style="labelPosition=center;verticalLabelPosition=middle;align=center;html=1;shape=mxgraph.basic.shaded_button;dx=10;fillColor=#E6E6E6;strokeColor=none;whiteSpace=wrap;" vertex="1" parent="1">
          <mxGeometry x="327.5" y="320" width="105" height="40" as="geometry" />
        </mxCell>
        <mxCell id="MLf8Ukj_yO1i3O_HCmkT-30" value="" style="endArrow=classic;startArrow=classic;html=1;rounded=0;entryX=0.46;entryY=0.925;entryDx=0;entryDy=0;entryPerimeter=0;exitX=0.617;exitY=0.029;exitDx=0;exitDy=0;exitPerimeter=0;" edge="1" parent="1" source="MLf8Ukj_yO1i3O_HCmkT-42" target="MLf8Ukj_yO1i3O_HCmkT-26">
          <mxGeometry width="50" height="50" relative="1" as="geometry">
            <mxPoint x="186" y="450" as="sourcePoint" />
            <mxPoint x="220" y="400" as="targetPoint" />
          </mxGeometry>
        </mxCell>
        <mxCell id="MLf8Ukj_yO1i3O_HCmkT-32" value="&lt;div align=&quot;left&quot;&gt;STATUS:&lt;/div&gt;" style="rounded=0;whiteSpace=wrap;html=1;align=left;" vertex="1" parent="1">
          <mxGeometry x="190" y="470" width="190" height="80" as="geometry" />
        </mxCell>
        <mxCell id="MLf8Ukj_yO1i3O_HCmkT-33" value="POWER CONSUPTION: 3.5 W" style="rounded=0;whiteSpace=wrap;html=1;" vertex="1" parent="1">
          <mxGeometry x="380" y="470" width="190" height="80" as="geometry" />
        </mxCell>
        <mxCell id="MLf8Ukj_yO1i3O_HCmkT-34" value="&lt;div align=&quot;left&quot;&gt;SETTING:&lt;br&gt;&lt;/div&gt;" style="rounded=0;whiteSpace=wrap;html=1;align=left;" vertex="1" parent="1">
          <mxGeometry x="190" y="550" width="190" height="80" as="geometry" />
        </mxCell>
        <mxCell id="MLf8Ukj_yO1i3O_HCmkT-35" value="Other values..." style="rounded=0;whiteSpace=wrap;html=1;" vertex="1" parent="1">
          <mxGeometry x="380" y="550" width="190" height="80" as="geometry" />
        </mxCell>
        <mxCell id="MLf8Ukj_yO1i3O_HCmkT-36" value="&lt;div&gt;START&lt;/div&gt;" style="labelPosition=center;verticalLabelPosition=middle;align=center;html=1;shape=mxgraph.basic.shaded_button;dx=10;fillColor=#E6E6E6;strokeColor=none;whiteSpace=wrap;" vertex="1" parent="1">
          <mxGeometry x="260" y="490" width="70" height="40" as="geometry" />
        </mxCell>
        <mxCell id="MLf8Ukj_yO1i3O_HCmkT-37" value="MANUAL" style="labelPosition=center;verticalLabelPosition=middle;align=center;html=1;shape=mxgraph.basic.shaded_button;dx=10;fillColor=#E6E6E6;strokeColor=none;whiteSpace=wrap;" vertex="1" parent="1">
          <mxGeometry x="260" y="570" width="70" height="40" as="geometry" />
        </mxCell>
        <mxCell id="MLf8Ukj_yO1i3O_HCmkT-38" value="PLC_name/Platform_type [PLC_ID, PLATFORM_ID]" style="text;html=1;align=center;verticalAlign=middle;whiteSpace=wrap;rounded=0;" vertex="1" parent="1">
          <mxGeometry x="130" y="422.5" width="460" height="30" as="geometry" />
        </mxCell>
        <mxCell id="MLf8Ukj_yO1i3O_HCmkT-42" value="" style="labelPosition=center;verticalLabelPosition=middle;align=center;html=1;shape=mxgraph.basic.shaded_button;dx=10;fillColor=#E6E6E6;strokeColor=none;whiteSpace=wrap;" vertex="1" parent="1">
          <mxGeometry x="140" y="420" width="70" height="40" as="geometry" />
        </mxCell>
        <mxCell id="MLf8Ukj_yO1i3O_HCmkT-43" value="" style="shape=flexArrow;endArrow=classic;html=1;rounded=0;" edge="1" parent="1">
          <mxGeometry width="50" height="50" relative="1" as="geometry">
            <mxPoint x="200" y="437" as="sourcePoint" />
            <mxPoint x="150" y="437" as="targetPoint" />
          </mxGeometry>
        </mxCell>
        <mxCell id="MLf8Ukj_yO1i3O_HCmkT-44" value="Change UI" style="text;html=1;align=center;verticalAlign=middle;whiteSpace=wrap;rounded=0;" vertex="1" parent="1">
          <mxGeometry x="40" y="325" width="60" height="30" as="geometry" />
        </mxCell>
        <mxCell id="MLf8Ukj_yO1i3O_HCmkT-45" value="Back to PLC UI" style="text;html=1;align=center;verticalAlign=middle;whiteSpace=wrap;rounded=0;" vertex="1" parent="1">
          <mxGeometry x="25" y="422.5" width="90" height="30" as="geometry" />
        </mxCell>
      </root>
    </mxGraphModel>
  </diagram>
</mxfile>
